<svg width="690" height="424" viewBox="0 0 690 424" fill="none" xmlns="http://www.w3.org/2000/svg">
<path d="M372.143 294.825C404.219 295.216 435.179 295.254 461.444 294.69C636.056 290.946 776.687 319.55 681.911 338.889C655.427 344.292 728.038 388.727 543.474 388.327C381.455 387.94 217.906 362.136 138.689 350.594C59.4727 339.053 23.5032 324.016 6.79909 317.209C-7.88941 311.229 -11.5948 281.759 162.751 288.946C198.733 290.431 289.173 293.812 372.143 294.825Z" fill="url(#paint0_linear_28_16)"/>
<path d="M28.1466 85.1471H439.65V313.57H28.1466V85.1471Z" fill="#161D34"/>
<path d="M28.3063 85.0879H439.803V91.0029H28.3063V85.0879Z" fill="#ACD5F4"/>
<path d="M35.5906 87.8159H45.496V88.3798H35.5906V87.8159Z" fill="#86BBD8"/>
<path d="M48.31 87.8159H58.2088V88.3798H48.31V87.8159Z" fill="#86BBD8"/>
<path d="M61.0294 87.8159H70.9348V88.3798H61.0294V87.8159Z" fill="#86BBD8"/>
<path d="M73.7488 87.8159H83.6542V88.3798H73.7488V87.8159Z" fill="#86BBD8"/>
<path d="M86.4681 87.8159H96.3736V88.3798H86.4681V87.8159Z" fill="#86BBD8"/>
<path d="M99.1809 87.8159H109.086V88.3798H99.1809V87.8159Z" fill="#86BBD8"/>
<path d="M111.9 87.8159H121.806V88.3798H111.9V87.8159Z" fill="#86BBD8"/>
<path d="M124.626 87.8159H134.532V88.3798H124.626V87.8159Z" fill="#86BBD8"/>
<path d="M31.1934 87.0945H33.0561V89.1012H31.1934V87.0945Z" fill="#86BBD8"/>
<path d="M412.203 91.9078H438.313V96.367H412.203V91.9078Z" fill="#194866"/>
<path d="M391.933 93.6718H405.683V94.5899H391.933V93.6718Z" fill="#194866"/>
<path d="M37.4467 92.9571H39.3093V94.9637H37.4467V92.9571Z" fill="#86C0F0"/>
<path d="M31.1934 92.9571H33.0561V94.9637H31.1934V92.9571Z" fill="#86C0F0"/>
<path d="M41.5445 92.9571H43.4139V94.9637H41.5445V92.9571Z" fill="#86C0F0"/>
<path d="M33.5697 102.126H39.7802V104.733H33.5697V102.126Z" fill="#2C7EEA"/>
<path d="M33.4419 112.06H39.908V114.774H33.4419V112.06Z" fill="#2C7EEA"/>
<path d="M33.4419 122.047H39.908V124.762H33.4419V122.047Z" fill="#2C7EEA"/>
<path d="M33.4419 132.041H39.908V134.756H33.4419V132.041Z" fill="#2C7EEA"/>
<path d="M33.4419 142.028H39.908V144.743H33.4419V142.028Z" fill="#2C7EEA"/>
<path d="M33.4419 152.015H39.908V154.73H33.4419V152.015Z" fill="#2C7EEA"/>
<path d="M33.4419 162.009H39.908V164.724H33.4419V162.009Z" fill="#2C7EEA"/>
<path d="M33.4419 171.996H39.908V174.711H33.4419V171.996Z" fill="#2C7EEA"/>
<path d="M33.4419 181.984H39.908V184.699H33.4419V181.984Z" fill="#2C7EEA"/>
<path d="M33.4419 191.971H39.908V194.686H33.4419V191.971Z" fill="#2C7EEA"/>
<path d="M33.4419 201.965H39.908V204.68H33.4419V201.965Z" fill="#2C7EEA"/>
<path d="M33.4419 211.952H39.908V214.667H33.4419V211.952Z" fill="#2C7EEA"/>
<path d="M33.4419 221.94H39.908V224.654H33.4419V221.94Z" fill="#2C7EEA"/>
<path d="M33.4419 231.927H39.908V234.642H33.4419V231.927Z" fill="#2C7EEA"/>
<path d="M33.4419 241.921H39.908V244.636H33.4419V241.921Z" fill="#2C7EEA"/>
<path d="M33.4419 251.908H39.908V254.623H33.4419V251.908Z" fill="#2C7EEA"/>
<path d="M33.4419 261.895H39.908V264.61H33.4419V261.895Z" fill="#2C7EEA"/>
<path d="M80.654 102.072H92.5556V104.787H80.654V102.072Z" fill="#3DC7C9"/>
<path d="M87.772 112.06H90.3539V114.774H87.772V112.06Z" fill="#2C7EEA"/>
<path d="M87.772 122.047H90.8726V124.762H87.772V122.047Z" fill="#2C7EEA"/>
<path d="M87.772 132.041H91.3334V134.756H87.772V132.041Z" fill="#2C7EEA"/>
<path d="M129.808 112.06H142.016V114.774H129.808V112.06Z" fill="#3DC7C9"/>
<path d="M129.808 122.047H143.191V124.762H129.808V122.047Z" fill="#3DC7C9"/>
<path d="M129.808 132.041H144.281V134.756H129.808V132.041Z" fill="#3DC7C9"/>
<path d="M108.142 112.06H111.697V114.774H108.142V112.06Z" fill="#F1FAFC"/>
<path d="M108.142 122.047H111.911V124.762H108.142V122.047Z" fill="#F1FAFC"/>
<path d="M108.142 132.041H112.111V134.756H108.142V132.041Z" fill="#F1FAFC"/>
<path d="M122.491 112.06H123.596V114.774H122.491V112.06Z" fill="#E9D6B8"/>
<path d="M122.491 122.047H123.642V124.762H122.491V122.047Z" fill="#E9D6B8"/>
<path d="M122.491 132.041H123.685V134.756H122.491V132.041Z" fill="#E9D6B8"/>
<path d="M80.9799 112.06H82.2136V114.774H80.9799V112.06Z" fill="#E9D6B8"/>
<path d="M80.9799 122.047H82.2508V124.762H80.9799V122.047Z" fill="#E9D6B8"/>
<path d="M80.9799 132.041H82.2857V134.756H80.9799V132.041Z" fill="#E9D6B8"/>
<path d="M87.772 152.015H98.8052V154.73H87.772V152.015Z" fill="#2C7EEA"/>
<path d="M140.16 152.015H157.247V154.73H140.16V152.015Z" fill="#3DC7C9"/>
<path d="M115.905 152.015H122.511V154.73H115.905V152.015Z" fill="#F1FAFC"/>
<path d="M132.842 152.015H134.266V154.73H132.842V152.015Z" fill="#E9D6B8"/>
<path d="M174.759 171.996H230.816V174.711H174.759V171.996Z" fill="#3DC7C9"/>
<path d="M117.196 171.996H144.523V174.711H117.196V171.996Z" fill="#F1FAFC"/>
<path d="M212.272 152.015H230.957V154.73H212.272V152.015Z" fill="#3DC7C9"/>
<path d="M182.841 152.015H192.961V154.73H182.841V152.015Z" fill="#F1FAFC"/>
<path d="M204.954 152.015H206.492V154.73H204.954V152.015Z" fill="#E9D6B8"/>
<path d="M248.933 152.015H250.487V154.73H248.933V152.015Z" fill="#E9D6B8"/>
<path d="M80.9799 152.015H82.5567V154.73H80.9799V152.015Z" fill="#E9D6B8"/>
<path d="M87.772 191.971H100.92V194.686H87.772V191.971Z" fill="#2C7EEA"/>
<path d="M80.9799 191.971H82.5922V194.686H80.9799V191.971Z" fill="#F1FAFC"/>
<path d="M113.962 191.971H115.592V194.686H113.962V191.971Z" fill="#F1FAFC"/>
<path d="M70.9548 231.927H84.5218V234.642H70.9548V231.927Z" fill="#2C7EEA"/>
<path d="M64.1627 231.927H65.8244V234.642H64.1627V231.927Z" fill="#F1FAFC"/>
<path d="M97.1519 231.927H98.8289V234.642H97.1519V231.927Z" fill="#F1FAFC"/>
<path d="M99.4137 181.984H101.106V184.699H99.4137V181.984Z" fill="#E9D6B8"/>
<path d="M99.4137 162.009H107.694V164.724H99.4137V162.009Z" fill="#2C7EEA"/>
<path d="M117.196 162.009H149.75V164.724H117.196V162.009Z" fill="#E9D6B8"/>
<path d="M204.189 112.06H232.605V114.774H204.189V112.06Z" fill="#3DC7C9"/>
<path d="M204.189 122.047H232.837V124.762H204.189V122.047Z" fill="#3DC7C9"/>
<path d="M204.189 132.041H233.071V134.756H204.189V132.041Z" fill="#3DC7C9"/>
<path d="M250.11 112.06H301.014V114.774H250.11V112.06Z" fill="#3DC7C9"/>
<path d="M250.11 122.047H320.332V124.762H250.11V122.047Z" fill="#3DC7C9"/>
<path d="M250.11 132.041H333.596V134.756H250.11V132.041Z" fill="#3DC7C9"/>
<path d="M182.522 112.06H189.368V114.774H182.522V112.06Z" fill="#F1FAFC"/>
<path d="M182.522 122.047H189.421V124.762H182.522V122.047Z" fill="#F1FAFC"/>
<path d="M182.522 132.041H189.476V134.756H182.522V132.041Z" fill="#F1FAFC"/>
<path d="M196.871 112.06H198.736V114.774H196.871V112.06Z" fill="#E9D6B8"/>
<path d="M196.871 122.047H198.751V124.762H196.871V122.047Z" fill="#E9D6B8"/>
<path d="M196.871 132.041H198.766V134.756H196.871V132.041Z" fill="#E9D6B8"/>
<path d="M336.445 112.06H338.355V114.774H336.445V112.06Z" fill="#E9D6B8"/>
<path d="M362.117 122.047H364.042V124.762H362.117V122.047Z" fill="#E9D6B8"/>
<path d="M379.579 132.041H381.52V134.756H379.579V132.041Z" fill="#E9D6B8"/>
<path d="M80.6539 142.028H143.737V144.743H80.6539V142.028Z" fill="#7EC8EF"/>
<path d="M70.3095 253.174H80.8341V255.889H70.3095V253.174Z" fill="#2C7EEA"/>
<path d="M103.618 273.148H114.228V275.863H103.618V273.148Z" fill="#2C7EEA"/>
<path d="M145.655 273.148H216.709V275.863H145.655V273.148Z" fill="#3DC7C9"/>
<path d="M81.6252 263.161H186.691V265.876H81.6252V263.161Z" fill="#F1FAFC"/>
<path d="M123.988 273.148H131.668V275.863H123.988V273.148Z" fill="#F1FAFC"/>
<path d="M63.5107 253.174H65.5737V255.889H63.5107V253.174Z" fill="#E9D6B8"/>
<path d="M87.772 253.174H89.8553V255.889H87.772V253.174Z" fill="#E9D6B8"/>
<path d="M122.69 283.136H127.791V285.85H122.69V283.136Z" fill="#2C7EEA"/>
<path d="M115.905 283.136H118.032V285.85H115.905V283.136Z" fill="#E9D6B8"/>
<path d="M96.8259 273.148H98.9766V275.863H96.8259V273.148Z" fill="#E9D6B8"/>
<path d="M134.339 293.13H309.008V295.844H134.339V293.13Z" fill="#F1FAFC"/>
<path d="M80.6539 201.965H178.502V204.68H80.6539V201.965Z" fill="#7EC8EF"/>
<path d="M80.654 211.952H227.761V214.667H80.654V211.952Z" fill="#7EC8EF"/>
<path d="M80.6539 221.94H131.58V224.654H80.6539V221.94Z" fill="#7EC8EF"/>
<path d="M220.088 123.326H611.888V314.291H220.088V123.326Z" fill="white"/>
<path d="M607.929 97.2261H224C221.908 97.1599 220.157 98.777 220.088 100.839V123.463H611.841V100.839C611.772 98.777 610.022 97.1599 607.929 97.2261Z" fill="#3A3A3A"/>
<path d="M228.397 104.282C228.401 105.575 227.341 106.626 226.029 106.63C224.717 106.634 223.651 105.588 223.647 104.295C223.644 103.002 224.704 101.952 226.015 101.948C226.02 101.948 226.024 101.948 226.029 101.948C227.337 101.948 228.397 102.993 228.397 104.282Z" fill="#86BBD8"/>
<path d="M235.369 104.282C235.369 105.571 234.308 106.617 233 106.617C231.693 106.617 230.632 105.571 230.632 104.282C230.632 102.993 231.693 101.948 233 101.948C234.308 101.948 235.369 102.993 235.369 104.282Z" fill="#2BDB91"/>
<path d="M242.334 104.282C242.334 105.571 241.273 106.617 239.966 106.617C238.658 106.617 237.597 105.571 237.597 104.282C237.597 102.993 238.658 101.948 239.966 101.948C241.272 101.951 242.33 102.994 242.334 104.282Z" fill="#C14A4A"/>
<path d="M226.894 118.224L223.162 114.538L226.894 110.859L228.277 112.23L225.936 114.538L228.277 116.853L226.894 118.224Z" fill="#7D7D7D"/>
<path d="M225.377 113.574H232.269V115.509H225.377V113.574Z" fill="#7D7D7D"/>
<path d="M242.7 118.224L241.316 116.853L243.658 114.538L241.316 112.23L242.7 110.859L246.432 114.538L242.7 118.224Z" fill="#7D7D7D"/>
<path d="M237.325 113.574H244.223V115.509H237.325V113.574Z" fill="#7D7D7D"/>
<path d="M252.366 109.902H558.555V120.053H252.366V109.902Z" fill="white"/>
<path d="M562.56 109.902H592.642V118.965H562.56V109.902Z" fill="#717171"/>
<path d="M228.716 256.315H418.349V307.53H228.716V256.315Z" fill="#3F4146"/>
<path d="M228.723 150.776H418.356V255.607H228.723V150.776Z" fill="#3F4146"/>
<path d="M335.404 206.424V204.052C335.408 203.318 334.807 202.721 334.062 202.717C334.06 202.717 334.058 202.717 334.056 202.717H314.802C314.054 202.717 313.448 203.315 313.448 204.052V216.181C313.448 216.918 314.054 217.516 314.802 217.516H334.056C334.801 217.516 335.404 216.921 335.404 216.187C335.404 216.185 335.404 216.183 335.404 216.181V213.809L342.684 217.367V202.866L335.404 206.424Z" fill="#7D7D7D"/>
<path d="M318.737 202.213C321.29 202.213 323.358 200.174 323.358 197.658C323.358 195.142 321.29 193.103 318.737 193.103C316.185 193.103 314.116 195.142 314.116 197.658C314.116 200.174 316.185 202.213 318.737 202.213Z" fill="#7D7D7D"/>
<path d="M328.623 202.213C331.175 202.217 333.247 200.18 333.25 197.664C333.254 195.148 331.187 193.107 328.635 193.103C326.083 193.099 324.012 195.136 324.008 197.652C324.008 197.654 324.008 197.656 324.008 197.658C324.008 200.172 326.073 202.21 328.623 202.213Z" fill="#747474"/>
<path d="M236.925 276.604H357.872V279.135H236.925V276.604Z" fill="#7D7D7D"/>
<path d="M237.637 270.702H379.129V273.227H237.637V270.702Z" fill="#7D7D7D"/>
<path d="M237.637 263.482H297.18V266.853H237.637V263.482Z" fill="#7D7D7D"/>
<path d="M422.214 150.776H604.503V200.044H422.214V150.776Z" fill="#3F4146"/>
<path d="M429.665 160.757H493.847V164.127H429.665V160.757Z" fill="#7D7D7D"/>
<path d="M429.665 167.97H555.489V170.501H429.665V167.97Z" fill="#7D7D7D"/>
<path d="M429.665 173.879H559.126V176.41H429.665V173.879Z" fill="#7D7D7D"/>
<path d="M429.665 184.433H458.636V192.237H429.665V184.433Z" fill="#7D7D7D"/>
<path d="M436.219 187.306H451.033V189.358H436.219V187.306Z" fill="#9C9C9C"/>
<path d="M515.454 256.315H604.683V307.53H515.454V256.315Z" fill="#3F4146"/>
<path d="M515.454 204.313H604.683V255.6H515.454V204.313Z" fill="#3F4146"/>
<path d="M546.647 218.607V243.306H578.187V218.607H546.647ZM575.972 241.122H548.841V220.784H575.952L575.972 241.122Z" fill="#7D7D7D"/>
<path d="M559.742 225.798C559.742 227.204 558.586 228.343 557.16 228.343C555.734 228.343 554.579 227.204 554.579 225.798C554.579 224.393 555.734 223.253 557.16 223.253C557.162 223.253 557.165 223.253 557.167 223.253C558.59 223.258 559.742 224.396 559.742 225.798Z" fill="#7D7D7D"/>
<path d="M574.63 231.645L568.442 226.89L560.185 233.57L554.288 231.25L550.17 233.085V239.819H574.63V231.645Z" fill="#7D7D7D"/>
<path d="M523.663 276.604H569.425V279.135H523.663V276.604Z" fill="#7D7D7D"/>
<path d="M523.916 270.702H572.572V273.227H523.916V270.702Z" fill="#7D7D7D"/>
<path d="M523.916 263.482H571.032V266.853H523.916V263.482Z" fill="#7D7D7D"/>
<path d="M523.078 286.884H554.089V295.237H523.078V286.884Z" fill="#7D7D7D"/>
<path d="M530.1 289.882H547.08V292.234H530.1V289.882Z" fill="#9C9C9C"/>
<path d="M422.155 256.315H511.383V307.53H422.155V256.315Z" fill="#3F4146"/>
<path d="M422.155 204.313H511.383V255.6H422.155V204.313Z" fill="#3F4146"/>
<path d="M453.308 218.577V243.336H484.926V218.577H453.308ZM482.706 241.147H455.507V220.759H482.685L482.706 241.147Z" fill="#7D7D7D"/>
<path d="M466.435 225.786C466.435 227.195 465.277 228.337 463.847 228.337C462.418 228.337 461.259 227.195 461.259 225.786C461.259 224.377 462.418 223.234 463.847 223.234C463.849 223.234 463.852 223.234 463.854 223.234C465.281 223.239 466.435 224.379 466.435 225.786Z" fill="#7D7D7D"/>
<path d="M481.36 231.647L475.157 226.88L466.879 233.576L460.968 231.25L456.84 233.09V239.841H481.36V231.647Z" fill="#7D7D7D"/>
<path d="M430.364 276.604H476.97V279.135H430.364V276.604Z" fill="#7D7D7D"/>
<path d="M430.616 270.702H478.719V273.227H430.616V270.702Z" fill="#7D7D7D"/>
<path d="M430.616 263.482H478.027V266.853H430.616V263.482Z" fill="#7D7D7D"/>
<path d="M429.778 286.853H461.021V295.269H429.778V286.853Z" fill="#7D7D7D"/>
<path d="M437.168 289.916H453.644V292.199H437.168V289.916Z" fill="#9C9C9C"/>
<path d="M268.098 135.344H297.338V138.469H268.098V135.344Z" fill="#747474"/>
<path d="M303.004 135.373H331.695V138.44H303.004V135.373Z" fill="#9C9C9C"/>
<path d="M337.902 135.433H365.459V138.38H337.902V135.433Z" fill="#9C9C9C"/>
<path d="M372.807 135.58H397.63V138.233H372.807V135.58Z" fill="#9C9C9C"/>
<path d="M407.712 136.004H424.599V137.809H407.712V136.004Z" fill="#9C9C9C"/>
<path d="M228.723 132.947H258.099V140.866H228.723V132.947Z" fill="#707070"/>
<path d="M558.379 129.857H602.933V132.29H558.379V129.857Z" fill="#7D7D7D"/>
<path d="M570.082 135.687H602.933V138.126H570.082V135.687Z" fill="#7D7D7D"/>
<path d="M230.3 31.643H190.299C187.845 31.643 185.855 33.6044 185.855 36.0235C185.855 36.0301 185.855 36.0366 185.855 36.0432V66.7133C185.855 69.1325 187.845 71.0939 190.299 71.0939H203.643L205.865 73.2841L210.302 77.6646L214.746 73.2841L216.968 71.0939H230.273C232.727 71.0939 234.717 69.1325 234.717 66.7133V36.0432C234.728 33.6267 232.751 31.6574 230.3 31.643Z" fill="#3DC7C9"/>
<path d="M202.665 63.205C201.348 62.8469 200.211 62.0226 199.472 60.8901C198.81 59.7196 198.481 58.3936 198.521 57.0539V54.3325C198.558 53.6269 198.402 52.9252 198.069 52.2996C197.781 51.8222 197.248 51.5422 196.685 51.5717V48.8962C197.248 48.9257 197.781 48.6457 198.069 48.1683C198.402 47.5427 198.558 46.841 198.521 46.1354V43.4009C198.48 42.0585 198.809 40.7306 199.472 39.5581C200.213 38.4275 201.35 37.6059 202.665 37.2498L203.331 39.322C202.756 39.6191 202.337 40.1437 202.18 40.7647C201.94 41.6185 201.831 42.5025 201.854 43.3877V46.1223C201.872 46.9669 201.685 47.803 201.308 48.5617C200.937 49.268 200.357 49.8464 199.645 50.2208C200.354 50.6038 200.931 51.1854 201.302 51.893C201.68 52.6465 201.87 53.4787 201.854 54.3193V57.0277C201.83 57.9129 201.938 58.7963 202.173 59.6507C202.328 60.2744 202.751 60.8009 203.331 61.0934L202.665 63.205Z" fill="white"/>
<path d="M216.536 61.1131C217.111 60.8134 217.534 60.2908 217.7 59.6704C217.95 58.8186 218.064 57.9339 218.039 57.0473V54.3259C218.021 53.4813 218.208 52.6452 218.585 51.8865C218.956 51.1717 219.547 50.5907 220.274 50.2274C219.547 49.8706 218.955 49.2942 218.585 48.5814C218.207 47.8181 218.021 46.9774 218.039 46.1288V43.3943C218.062 42.5077 217.947 41.6237 217.7 40.7712C217.535 40.1502 217.113 39.6269 216.536 39.3286L217.248 37.2498C218.559 37.6078 219.692 38.4295 220.427 39.5581C221.101 40.7273 221.435 42.0572 221.392 43.4009V46.1354C221.351 46.8423 221.506 47.5466 221.838 48.1748C222.136 48.6581 222.683 48.9368 223.255 48.8962V51.5717C222.683 51.531 222.136 51.8097 221.838 52.293C221.506 52.9213 221.351 53.6255 221.392 54.3325V57.0277C221.435 58.3694 221.101 59.6966 220.427 60.8639C219.692 61.9944 218.56 62.8181 217.248 63.1787L216.536 61.1131Z" fill="white"/>
<path d="M25 6.4288V43.5976C25 46.3498 27.2638 48.5814 30.0558 48.5814H77.7668C80.5588 48.5814 82.8226 46.3498 82.8226 43.5976V32.4496L85.3505 29.9577L90.4064 24.9804L85.3505 19.9966L82.8226 17.5112V6.4288C82.8226 3.67656 80.5588 1.44498 77.7668 1.44498H30.0558C27.2638 1.44498 25 3.67656 25 6.4288Z" fill="#2C7EEA"/>
<path d="M40.6531 24.2394V24.3312L48.0107 27.3871V31.4528L36.7349 25.9772V22.5147L48.0107 17.026V21.0852L40.6531 24.2394Z" fill="white"/>
<path d="M52.6274 34.3185H49.5208L56.1066 10.547H59.2465L52.6274 34.3185Z" fill="white"/>
<path d="M68.5998 24.2787V24.1869L61.1691 21.0917V17.026L72.5314 22.4951V25.9575L61.1691 31.4528V27.4199L68.5998 24.2787Z" fill="white"/>
<path d="M148.232 30.0875L130.151 24.3234L116.467 23.4184L101.473 27.8907C101.473 27.8907 96.5631 31.2286 101.12 41.9438C105.677 52.659 103.927 69.44 103.927 69.44L142.604 70.6598C143.174 60.2659 144.273 49.9074 145.897 39.6224C146.469 36.1599 146.543 32.1073 148.232 30.0875Z" fill="#504E4D"/>
<path d="M121.696 69.9187H123.692C125.747 54.8499 125.635 39.5712 123.359 24.5332L121.576 25.5824C122.075 40.8552 121.224 56.1214 121.696 69.9187Z" fill="#292B2D"/>
<path d="M129.379 28.5268C129.107 30.5859 127.384 32.3762 125.614 32.4614H120.498C118.702 32.3827 116.993 30.5925 116.727 28.5268C116.314 25.13 115.897 21.7311 115.476 18.3297C115.196 16.2902 116.421 12.2048 119.141 10.9916C121.635 9.9162 124.471 9.9162 126.965 10.9916C129.685 12.2048 130.916 16.2902 130.637 18.3297L129.379 28.5268Z" fill="#E2C59C"/>
<path d="M122.853 32.7106L119.607 37.9568L113.66 30.6253L114.591 26.7694L116.52 25.2087L116.554 28.1137L122.853 32.7106Z" fill="#303030"/>
<path d="M123.246 32.7106L126.486 37.9567L132.02 31.1302L131.116 26.9464L129.725 25.1824L129.16 28.6055L123.246 32.7106Z" fill="#303030"/>
<path d="M116.8 84.4572C116.8 84.4572 144.221 84.5162 154.798 84.6736C162.116 84.7785 162.781 74.4896 159.901 72.942C151.133 68.2336 123.771 65.8203 123.771 65.8203L105.145 82.667C105.145 82.667 106.209 82.6407 116.8 84.4572Z" fill="#2C7EEA"/>
<path d="M85.294 136.131C84.8749 136.636 85.1809 137.961 85.1809 137.961C85.1809 137.961 92.5584 138.774 94.9399 138.223C95.8706 137.917 96.7634 137.508 97.6009 137.004C97.7606 136.912 98.0533 136.348 98.2196 136.256C98.5123 136.085 98.6719 136.374 98.9247 136.217C99.3212 135.99 99.6991 135.733 100.056 135.449C100.721 132.112 99.8361 130.767 99.8361 130.767C99.8361 130.767 93.5496 128.708 92.3721 130.144C89.5848 133.521 86.2187 135.062 85.294 136.131Z" fill="#161711"/>
<path d="M102.996 74.5025C102.996 74.5025 101.18 91.4869 101.439 100.471C101.632 107.245 101.652 120.229 100.022 131.292C99.9159 131.948 91.1414 131.456 91.1414 131.456C91.1414 131.456 87.9882 89.3425 87.0569 82.4111C86.1255 75.4796 88.8397 70.4696 102.996 74.5025Z" fill="#2C7EEA"/>
<path d="M126.579 84.0439C126.579 84.0439 111.591 86.1489 101.592 87.185C97.9202 87.5654 94.747 77.4404 94.3213 77.0076C92.9908 75.5118 91.1068 74.6048 89.0925 74.4894C91.2612 72.1811 102.484 70.0368 114.212 67.3285C125.94 64.6202 127.73 66.3186 127.73 66.3186L126.579 84.0439Z" fill="#1F6CD1"/>
<path d="M114.212 67.3285C102.484 70.0368 91.2612 72.1811 89.0925 74.4894C91.1068 74.6048 92.9908 75.5117 94.3213 77.0076C94.441 77.1256 95.1129 80.3651 95.5985 81.5258C93.6893 78.1355 121.244 68.5547 127.204 66.0759C126.093 65.7284 122.853 65.3284 114.212 67.3285Z" fill="#2C7EEA"/>
<path d="M101.333 83.9193L100.189 116.976L99.0378 124.642L98.9114 116.976L99.1642 112.196L96.49 104.779L95.0863 87.5588L97.1286 88.313L96.8691 80.7782L101.333 83.9193Z" fill="#1F6CD1"/>
<path d="M109.755 28.0547C109.755 28.0547 103.734 23.3987 97.8404 32.0352C89.1923 44.6914 85.4536 58.1543 84.0766 62.0496C83.0255 65.0333 83.6109 73.4795 87.1433 76.9617C87.9882 77.8011 93.0906 77.1322 93.0906 77.1322L96.4168 74.8435L95.0131 72.2205L94.9399 70.122C94.9399 70.122 99.2241 59.9445 104.479 50.3179C109.735 40.6913 109.755 28.0547 109.755 28.0547Z" fill="#414141"/>
<path d="M95.0331 66.7448L114.591 67.7482C114.591 67.7482 95.7515 76.2731 95.1262 74.8042C91.6005 66.4825 95.0331 66.7448 95.0331 66.7448Z" fill="#E9D6B8"/>
<path d="M92.4919 76.3714L91.1481 67.9252L93.3766 65.6628L98.3127 66.4366L97.3082 75.8009L92.4919 76.3714Z" fill="#504E4D"/>
<path d="M142.651 29.3072C142.651 29.3072 149.702 27.3399 152.769 36.4354C157.479 50.3638 157.06 63.1316 156.408 65.853C156.102 67.1121 155.197 71.4336 147.321 71.6041C144.128 71.6696 145.405 64.9218 145.405 64.9218C143.712 59.86 142.3 54.7109 141.174 49.4982C138.992 39.806 142.651 29.3072 142.651 29.3072Z" fill="#414141"/>
<path d="M145.831 62.9283L126.958 70.522C126.958 70.522 140.349 72.4106 148.718 70.7253C154.379 69.5908 146.09 62.6856 145.831 62.9283Z" fill="#E9D6B8"/>
<path d="M152.463 70.3056L152.975 67.1973L146.722 61.6692L143.343 63.1775L147.767 71.5122L152.463 70.3056Z" fill="#504E4D"/>
<path d="M150.699 132.341L150.837 137.868L156.367 138.763C156.367 138.763 156.802 138.053 157.27 138.129C157.738 138.205 158.048 139.035 158.582 139.122L161.554 139.603L172.647 141.401C172.647 141.401 173.087 140.31 172.85 139.873C172.387 139.447 171.85 139.105 171.267 138.863C168.54 137.608 160.782 133.805 159.814 130.885C158.642 127.333 150.699 132.341 150.699 132.341Z" fill="#161711"/>
<path d="M152.491 74.3034C149.56 75.364 147.626 81.9883 147.022 83.6639C145.595 87.8754 148.489 133.039 148.489 133.039L160.142 130.165L161.599 76.026C161.599 76.026 161.499 71.0432 152.491 74.3034Z" fill="#1F6CD1"/>
<path d="M158.123 74.6713L160.861 75.6035L159.19 115.308L152.404 129.101L155.878 119.63L156.084 99.6155C156.084 99.6155 151.381 109.008 151.414 108.517C151.447 108.026 156.253 87.7952 156.253 87.7952C156.253 87.7952 152.242 90.6852 152.627 90.5852C153.012 90.4851 155.842 76.4108 158.123 74.6713Z" fill="#2C7EEA"/>
<path d="M140.136 73.4205C140.136 73.4205 140.136 73.4205 140.136 73.3812V72.168H101.606V73.4205C101.606 73.4205 101.606 73.4205 101.606 73.4599L101.732 73.6894C102.397 74.7452 103.568 74.9288 104.919 74.9288H136.85C138.181 74.9288 139.378 74.7452 140.03 73.6894L140.136 73.4205Z" fill="#B6C2C9"/>
<path d="M108.125 72.4762H133.637V73.3353H108.125V72.4762Z" fill="#879BA6"/>
<path d="M140.11 72.3254L140.216 47.4063C140.224 46.7577 139.697 46.2266 139.039 46.2194C139.032 46.2194 139.026 46.2194 139.019 46.2194H102.95C102.284 46.2154 101.743 46.744 101.739 47.3997C101.739 47.4017 101.739 47.4043 101.739 47.4063L101.632 72.3254H140.11Z" fill="#E4EEF3"/>
<path d="M123.259 59.2757C123.259 60.5472 122.214 61.5774 120.924 61.5774C119.634 61.5774 118.589 60.5472 118.589 59.2757C118.589 58.0041 119.634 56.9739 120.924 56.9739C120.929 56.9739 120.933 56.9739 120.938 56.9739C122.22 56.9844 123.256 58.0113 123.259 59.2757Z" fill="#B6C2C9"/>
<path d="M122.336 5.38504C120.955 5.3798 119.668 6.06704 118.917 7.20807H117.513C115.763 7.20807 114.343 8.60485 114.34 10.3295V18.0479H116.575V14.9133C116.575 13.6988 117.571 12.7132 118.803 12.7099H119.402C121.653 12.7139 123.482 10.9217 123.493 8.70321V5.42438L122.336 5.38504Z" fill="#163F59"/>
<path d="M118.384 20.9201C118.384 21.9739 117.518 22.8284 116.448 22.8284C116.446 22.8284 116.444 22.8284 116.442 22.8284H116.282C115.213 22.8323 114.344 21.9805 114.34 20.9267C114.34 20.9247 114.34 20.9221 114.34 20.9201V18.5987C114.34 17.541 115.209 16.6839 116.282 16.6839H116.442C117.21 16.6858 117.906 17.1324 118.218 17.8249L118.384 20.9201Z" fill="#E2C59C"/>
<path d="M130.824 23.8514C130.824 25.4515 129.574 28.1664 127.498 29.0254C124.642 30.1665 121.447 30.1665 118.591 29.0254C116.528 28.1664 115.264 25.458 115.264 23.8514V10.205C115.264 8.59178 116.881 7.23434 118.897 7.19499H127.152C129.148 7.23434 130.798 8.59178 130.784 10.205L130.824 23.8514Z" fill="#E9D6B8"/>
<path d="M124.651 5.38503C126.031 5.38108 127.318 6.06767 128.07 7.20805H129.481C131.229 7.20805 132.647 8.6055 132.647 10.3295V18.0479H130.419V14.9133C130.415 13.7001 129.42 12.7171 128.19 12.7099H125.336C123.086 12.7139 121.259 10.921 121.252 8.7032V5.42437L124.651 5.38503Z" fill="#163F59"/>
<path d="M128.636 18.5987C128.636 17.541 129.505 16.6839 130.578 16.6839H130.731C131.8 16.6839 132.667 17.5383 132.667 18.5922C132.667 18.5941 132.667 18.5967 132.667 18.5987V20.9201C132.667 21.9739 131.8 22.8284 130.731 22.8284H130.572C129.802 22.8304 129.104 22.3857 128.789 21.6939L128.636 18.5987Z" fill="#E9D6B8"/>
<path d="M121.245 9.24095C121.298 8.98191 121.325 8.71831 121.325 8.45403V5.38505H118.438C116.178 5.3811 114.344 7.18382 114.34 9.41146C114.34 9.41342 114.34 9.41604 114.34 9.418V12.4804H117.24C117.522 12.4785 117.802 12.4503 118.078 12.3952C118.398 10.8135 119.644 9.57212 121.245 9.24095Z" fill="#163F59"/>
<path d="M238.959 300.758L238.656 320.994C238.656 320.994 230.846 312.659 229.999 303.105C229.152 293.551 238.446 300.016 238.959 300.758Z" fill="#E9D6B8"/>
<path d="M238.287 246.293C238.287 246.293 233.351 249.343 230.025 273.712C226.698 298.081 228.929 297.142 228.929 297.142L229.65 302.677L238.967 303.573L243.769 282.542L238.287 246.293Z" fill="#2157A2"/>
<path d="M285.734 286.821L271.129 308.734C271.129 308.734 296.114 294.421 295.636 285.135C295.157 275.849 285.734 286.821 285.734 286.821Z" fill="#E9D6B8"/>
<path d="M299.154 280.438C300.567 283.028 300.325 285.781 296.01 289.992C292.714 293.209 291.638 294.296 291.638 294.296L283.777 288.285L285.36 285.928L286.435 284.787C286.435 284.787 296.013 274.682 299.154 280.438Z" fill="#0095EF"/>
<path d="M275.791 245.445C275.791 245.445 278.076 242.96 283.564 249.776C292.911 261.384 297.358 275.741 298.337 278.522C299.316 281.302 301.748 284.204 296.795 288.582C290.936 292.787 286.577 285.537 286.577 285.537C286.577 285.537 282.635 275.365 277.272 266.683C267.862 251.452 275.791 245.445 275.791 245.445Z" fill="#2867BE"/>
<path d="M265.198 418.118L266.482 423.365L271.95 423.109C271.95 423.109 272.223 422.342 272.682 422.322C273.141 422.302 273.613 423.03 274.139 422.978L277.086 422.84L288.062 422.315C288.062 422.315 288.249 421.187 287.929 420.82C287.397 420.518 286.817 420.307 286.213 420.197C283.352 419.541 275.143 417.489 273.607 414.892C271.764 411.751 265.198 418.118 265.198 418.118Z" fill="#161711"/>
<path d="M250.297 294.743C250.297 294.743 264.207 366.667 265.457 369.887C269.682 380.766 274.651 365.998 275.769 362.247C276.886 358.496 277.711 331.125 276.301 311.235L274.891 291.359L250.297 294.743Z" fill="#163F59"/>
<path d="M263.522 351.821C263.522 351.821 262.384 360.536 261.632 371.631C261.074 379.782 262.178 402.924 264.486 418.925C264.626 419.902 274.844 416.413 274.844 416.413C274.844 416.413 276.421 371.244 276.793 361.126C277.166 351.007 269.675 344.312 263.522 351.821Z" fill="#163F59"/>
<path d="M242.307 416.525C242.693 416.013 242.307 414.728 242.307 414.728C242.307 414.728 235.063 414.289 232.781 414.931C231.891 415.27 231.045 415.71 230.26 416.243C230.1 416.335 229.841 416.899 229.694 416.997C229.408 417.174 229.242 416.899 229.029 417.069C228.654 417.307 228.301 417.574 227.971 417.869C227.492 421.148 228.404 422.46 228.404 422.46C228.404 422.46 234.391 423.994 235.721 422.722C238.994 419.469 241.456 417.646 242.307 416.525Z" fill="#161711"/>
<path d="M248.627 342.764C248.627 342.764 250.802 343.584 245.966 373.257C242.48 394.622 239.373 410.289 237.91 417.377C237.338 420.132 236.526 419.679 236.526 419.679L230.606 420.623L227.612 418.354L233.805 370.005L248.627 342.764Z" fill="#163F59"/>
<path d="M261.007 309.196C261.007 309.196 250.057 365.788 240.524 391.37C234.943 406.361 233.506 378.176 233.506 378.176L239.307 296.48L267.859 293.759C267.859 293.759 264.646 294.894 261.007 309.196Z" fill="#163F59"/>
<path d="M264.306 240.166L265.766 233.772C265.766 233.772 270.38 234.215 271.334 231.774C273.242 226.891 271.885 219 270.832 216.775C267.847 210.447 266.746 199.425 252.001 207.884C246.395 211.095 254.62 227.378 255.187 230.905C255.755 234.431 253.786 238.382 253.786 238.382L257.146 240.965L264.306 240.166Z" fill="#E9D6B8"/>
<path d="M266.664 218.545C266.664 218.545 265.041 217.509 264.757 218.756C264.473 220.003 265.31 222.768 266.07 223.026C266.83 223.283 267.009 226.671 267.009 226.671L264.94 230.376L254.644 230.172C254.644 230.172 251.506 228.74 251.297 226.486C251.089 224.232 248.868 208.322 248.868 208.322L256.165 204.714C258.27 203.727 260.446 202.893 262.675 202.219C266.788 201.153 267.597 203.313 267.449 204.439C267.3 205.564 268.561 205.713 270.211 205.746C271.86 205.779 273.864 207.064 272.959 207.768C272.593 208.069 274.203 209.104 273.535 210.272C272.57 211.958 269.446 212.447 269.139 215.196C269.001 216.466 268.401 220.579 266.664 218.545Z" fill="#194866"/>
<path d="M237.996 246.347L250.237 240.872L253.616 237.724L266.628 237.409L268.91 241.108L278.995 245.423C278.995 245.423 281.483 249.278 279.314 263.6C276.92 279.463 276.414 303.451 276.414 303.451L238.269 305.261C238.269 305.261 241.575 254.052 237.996 246.347Z" fill="#2A84FB"/>
<path d="M181.93 257.948C183.553 261.948 187.651 285.7 183.081 291.3C182.555 291.956 185.449 292.959 184.93 295.89C184.837 296.389 183.966 298.743 183.966 298.743L180.227 299.7L168.918 293.366L171.08 290.775H172.104C172.633 290.262 172.881 289.531 172.77 288.808C172.504 287.719 175.357 285.949 179.675 267.509C180.999 262.112 181.571 257.069 181.93 257.948Z" fill="#B0BFDE"/>
<path d="M148.196 247.154C143.838 248.229 135.802 252.085 134.119 258.669C131.598 268.558 136.647 283.077 128.651 297.28C126.096 301.812 172.836 307.891 172.836 307.891L181.85 257.921C181.85 257.921 170.588 247.075 168.286 246.341C163.51 244.832 156.91 244.99 148.196 247.154Z" fill="#2E5E89"/>
<path d="M153.403 248.679L157.44 237.343C157.757 236.454 158.744 235.987 159.645 236.299L166.174 238.558C167.075 238.87 167.55 239.843 167.233 240.732L163.196 252.068C162.879 252.957 161.892 253.424 160.99 253.112L154.462 250.852C153.561 250.54 153.087 249.568 153.403 248.679Z" fill="#E2C59C"/>
<path d="M211.201 309.006C209.81 312.802 185.416 326.757 177.273 325.931L152.659 327.092C131.711 324.567 121.799 292.487 121.799 292.487C122.631 284.427 143.273 296.107 150.624 299.7C162.272 305.432 169.636 305.72 169.636 305.72C177.433 306.507 186.467 300.579 196.299 300.369C207.063 300.172 213.389 303.032 211.201 309.006Z" fill="#081832"/>
<path d="M164.098 296.84L168.219 292.663C168.219 292.663 170.716 293.709 170.74 294.304C170.765 294.9 172.648 297.498 172.648 297.498L171.465 300.88L169.143 301.364C169.143 301.364 168.514 300.608 169.13 300.144C169.747 299.681 168.34 299.84 167.876 299.85C167.412 299.859 163.687 300.058 164.098 296.84Z" fill="#E9D6B8"/>
<path d="M150.996 285.577C150.996 285.577 155.905 295.005 165.564 296.706C167.231 297.006 168.434 298.639 167.685 299.273C166.753 300.084 165.394 300.374 163.039 300.597C158.132 301.075 151.297 300.202 146.22 296.232C138.704 290.36 136.248 287.587 136.605 284.231C136.961 280.875 150.996 285.577 150.996 285.577Z" fill="#E9D6B8"/>
<path d="M135.476 255.364C133.481 258.603 132.316 263.804 132.336 271.253C132.336 277.011 137.392 286.447 138.164 289.352C138.297 289.838 138.603 291.916 138.603 291.916L144.191 297.32L155.394 289.824L151.981 284.664L150.963 284.768C150.963 284.768 150.298 281.929 150.491 280.834C150.684 279.739 147.391 264.866 145.768 255.338C144.83 249.823 137.472 252.157 135.476 255.364Z" fill="#B0BFDE"/>
<path d="M145.495 284.578L148.781 283.595L150.112 283.267C150.207 283.857 150.516 284.393 150.983 284.775L148.415 285.07L145.455 285.962L141.982 288.316L145.495 284.578Z" fill="#BCD0E2"/>
<path d="M167.958 255.694C167.628 256.878 166.387 257.574 165.186 257.249C165.186 257.249 165.185 257.248 165.184 257.248L155.405 254.592C154.209 254.261 153.507 253.04 153.835 251.858L157.827 237.582C158.157 236.402 159.394 235.708 160.592 236.034C160.592 236.034 160.594 236.034 160.594 236.034L170.373 238.69C171.569 239.019 172.273 240.236 171.95 241.418L167.958 255.694Z" fill="#E9D6B8"/>
<path d="M171.138 244.369C171.962 243.888 172.699 243.277 173.32 242.559C173.627 241.495 173.378 240.35 172.655 239.503C171.744 238.585 170.513 239.503 170.513 239.503C170.513 239.503 171.983 240.926 171.976 241.307C171.97 241.687 171.138 244.369 171.138 244.369Z" fill="#163F59"/>
<path d="M155.033 243.733C155.033 243.733 155.093 237.831 155.811 236.316C156.53 234.801 157.022 233.693 159.071 234.08C162.118 234.624 161.985 235.26 163.681 234.736C165.377 234.211 168.584 232.769 169.535 232.828C171.132 232.874 173.334 234.001 172.648 236.762C172.329 237.792 172.557 238.91 173.254 239.739C173.067 239.956 172.462 240.048 171.378 240.251C168.291 240.854 166.588 240.684 164.659 239.595C162.73 238.507 159.171 236.277 158.293 237.674C157.414 239.07 156.297 243.759 156.024 244.061C155.751 244.363 155.326 244.107 155.033 243.733Z" fill="#194866"/>
<path d="M156.915 248.855C156.806 249.249 156.392 249.481 155.991 249.373H155.991L153.882 248.795C153.487 248.695 153.249 248.298 153.351 247.909C153.352 247.903 153.354 247.896 153.356 247.891L154.421 244.081C154.531 243.686 154.944 243.454 155.345 243.562H155.345L157.454 244.14C157.855 244.248 158.09 244.656 157.98 245.05V245.051L156.915 248.855Z" fill="#E9D6B8"/>
<path d="M169.515 252.278C169.402 252.67 168.99 252.901 168.59 252.796L166.475 252.219C166.077 252.114 165.842 251.711 165.948 251.319C165.949 251.317 165.949 251.316 165.949 251.314L167.02 247.504C167.127 247.111 167.535 246.879 167.933 246.984C167.935 246.985 167.936 246.985 167.938 246.986L170.054 247.563C170.451 247.672 170.686 248.075 170.579 248.468L169.515 252.278Z" fill="#E9D6B8"/>
<path d="M155.625 245.241C155.625 245.241 154.048 250.861 153.529 252.737C153.057 254.435 152.698 258.337 162.41 260.966C168.151 262.534 169.103 258.311 169.488 256.947C169.781 255.904 169.455 252.461 169.016 251.701L168.351 254.022C167.919 252.409 166.654 251.142 165.025 250.691C160.621 249.497 158.911 251.766 156.975 251.196C155.538 250.75 155.086 248.041 155.625 245.241Z" fill="#194866"/>
<path d="M162.231 253.884L165.251 254.704C165.647 254.812 166.058 254.582 166.168 254.191C166.168 254.189 166.168 254.188 166.169 254.186L166.289 253.773L161.825 252.553L161.705 252.973C161.595 253.367 161.83 253.775 162.23 253.884H162.231Z" fill="#E9D6B8"/>
<path d="M157.609 305.156V305.123V304.114L200.005 303.353V304.363L199.905 304.553C199.373 305.445 198.401 305.615 197.244 305.641L160.35 306.297C159.232 306.297 158.247 306.179 157.689 305.314L157.609 305.156Z" fill="#B6C2C9"/>
<path d="M167.827 305.137L167.727 305.287C167.57 305.511 167.36 305.693 167.115 305.819L160.669 305.93C159.591 305.93 158.673 305.845 158.114 305.143L158.008 304.992V304.494L167.834 304.317L167.827 305.137Z" fill="#D8E5ED"/>
<path d="M173.517 304.07L194.702 303.691L194.715 304.399L173.531 304.779L173.517 304.07Z" fill="#879BA6"/>
<path d="M168.073 303.891L173.195 283.247C173.35 282.689 173.847 282.288 174.433 282.25L204.176 281.713C204.586 281.687 204.94 281.995 204.966 282.4C204.972 282.496 204.959 282.592 204.927 282.683L199.812 303.32L168.073 303.891Z" fill="#D9E1E4"/>
<path d="M184.664 292.828C184.409 293.569 184.81 294.373 185.562 294.625C185.742 294.685 185.932 294.709 186.121 294.697C187.266 294.619 188.232 293.826 188.516 292.729C188.779 291.999 188.392 291.197 187.651 290.937C187.463 290.872 187.264 290.845 187.066 290.861C185.918 290.936 184.949 291.729 184.664 292.828Z" fill="#B6C2C9"/>
<path d="M148.848 332.449C151.781 332.941 154.017 329.584 154.017 329.584L161.6 323.682L159.997 319.701L145.235 326.259C145.235 326.259 145.907 331.944 148.848 332.449Z" fill="#E9D6B8"/>
<path d="M149.367 322.829C149.367 322.829 201.461 301.713 204.442 301.687C214.507 301.595 212.198 311.629 207.103 316.357C201.115 321.931 155.347 332.095 155.347 332.095L149.367 322.829Z" fill="#163F59"/>
<path d="M153.992 329.593C153.856 330.237 153.637 330.861 153.338 331.449C152.696 332.951 151.978 333.456 151.23 333.63C148.359 334.314 146.347 333.803 139.486 334.775C132.626 335.747 130.637 334.665 128.802 331.473C126.967 328.281 129.163 325.959 132.49 325.869C137.304 325.739 139.946 326.412 142.463 326.152C145.1 325.884 145.295 325.315 146.877 324.457C148.356 323.653 149.413 328.913 147.99 330.054C146.748 331.04 152.876 331.513 153.992 329.593Z" fill="#194866"/>
<path d="M152.388 332.506C149.516 333.19 147.505 332.679 140.644 333.645C133.783 334.611 131.793 333.535 129.958 330.348C129.114 328.873 129.133 327.591 129.722 326.619C128.175 327.564 127.586 329.319 128.809 331.47C130.644 334.664 132.627 335.733 139.494 334.774C146.361 333.815 148.367 334.313 151.239 333.629C151.948 333.436 152.546 332.962 152.89 332.32C152.73 332.4 152.562 332.463 152.388 332.506Z" fill="white"/>
<path d="M139.173 331.33C138.951 331.398 138.779 330.989 138.742 330.41C138.667 329.227 138.461 328.057 138.129 326.919C137.958 326.346 137.997 325.849 138.232 325.794C138.468 325.74 138.838 326.165 138.996 326.724C139.312 327.852 139.502 329.011 139.564 330.18C139.598 330.694 139.398 331.229 139.173 331.33Z" fill="white"/>
<path d="M141.3 331.027C141.066 331.061 140.881 330.652 140.848 330.118C140.772 328.994 140.568 327.883 140.239 326.805C140.074 326.259 140.111 325.801 140.364 325.78C140.618 325.76 141.009 326.179 141.141 326.717C141.455 327.776 141.647 328.868 141.713 329.97C141.738 330.522 141.528 330.985 141.3 331.027Z" fill="white"/>
<path d="M143.511 331.036C143.279 331.025 143.067 330.621 143.002 330.066C142.875 328.91 142.623 327.771 142.251 326.667C142.067 326.107 142.09 325.641 142.356 325.641C142.622 325.641 142.998 326.092 143.196 326.647C143.55 327.74 143.784 328.868 143.895 330.01C143.947 330.558 143.758 331.015 143.511 331.036Z" fill="white"/>
<path d="M170.801 325.684L156.312 312.664L162.245 306.628L178.102 322.417L170.801 325.684Z" fill="#E9D6B8"/>
<path d="M173.524 315.189C173.524 315.189 136.686 283.189 134.205 282.253C125.872 279.137 120.947 288.211 121.299 291.314C121.763 295.334 159.207 327.368 159.207 327.368L173.524 315.189Z" fill="#194866"/>
<path d="M195.42 324.563C196.335 325.258 196.699 327.503 196.699 327.503C196.699 327.503 185.115 333.1 180.901 333.571C179.206 333.611 177.512 333.451 175.854 333.096C175.521 333.041 174.714 332.289 174.395 332.233C173.803 332.115 173.731 332.683 173.219 332.572C172.436 332.434 171.666 332.231 170.917 331.964C167.86 326.863 168.46 324.154 168.46 324.154C168.46 324.154 174.137 325.212 173.072 324.075C170.794 321.642 176.327 318.442 177.746 319.718C183.432 324.809 192.763 322.562 195.42 324.563Z" fill="#194866"/>
<path d="M196.196 325.596C192.641 327.384 185.158 331.1 183.626 331.346C177.346 332.379 172.708 330.556 169.629 329.516C170.006 330.352 170.433 331.165 170.906 331.952C171.655 332.219 172.426 332.423 173.209 332.56C173.721 332.672 173.793 332.103 174.385 332.221C174.705 332.278 175.512 333.03 175.845 333.086C177.503 333.441 179.198 333.601 180.893 333.561C185.11 333.095 196.699 327.481 196.699 327.481C196.606 326.835 196.438 326.203 196.196 325.596Z" fill="white"/>
<path d="M187.368 322.932C187.501 323.125 187.055 323.417 186.393 323.616C185.031 324.023 183.712 324.555 182.452 325.206C181.816 325.529 181.226 325.642 181.138 325.426C181.05 325.209 181.439 324.737 182.062 324.416C183.313 323.785 184.62 323.269 185.967 322.875C186.597 322.692 187.236 322.733 187.368 322.932Z" fill="white"/>
<path d="M184.582 322.241C184.702 322.442 184.274 322.785 183.637 323.028C182.322 323.543 181.058 324.174 179.859 324.913C179.261 325.292 178.694 325.436 178.585 325.208C178.477 324.98 178.867 324.463 179.467 324.104C180.654 323.379 181.907 322.764 183.209 322.268C183.841 322.032 184.456 322.042 184.582 322.241Z" fill="white"/>
<path d="M181.906 321.653C182.02 321.867 181.61 322.248 180.991 322.549C179.727 323.162 178.521 323.887 177.388 324.714C176.814 325.13 176.278 325.311 176.173 325.063C176.069 324.815 176.437 324.267 176.999 323.865C178.127 323.058 179.326 322.352 180.581 321.755C181.194 321.467 181.793 321.446 181.906 321.653Z" fill="white"/>
<path d="M499.356 82.7074C499.342 82.6668 499.331 82.6248 499.323 82.5828C499.349 82.5533 499.374 82.5232 499.396 82.491C500.496 76.4462 502.468 70.5876 505.25 65.0936C507.246 61.3033 511.237 57.7162 513.02 55.9129C517.577 58.3589 522.088 57.2244 526.325 60.3983C526.911 62.2495 527.356 64.1407 527.656 66.0576C528.321 69.7233 528.853 73.1398 529.339 76.3268C535.944 76.9433 552.263 78.1761 558.403 79.363C562.042 80.1893 562.255 81.5861 562.82 82.032C562.494 87.888 557.678 91.2127 554.764 95.8752C554.245 96.7146 514.983 96.3277 508.49 96.3277C505.051 96.2883 496.223 94.3276 499.356 82.7074Z" fill="#0E2B3D"/>
<path d="M502.939 24.9974C493.662 28.9492 484.491 44.149 484.491 44.149C484.491 44.149 485.409 48.4497 487.167 48.0015C489.385 47.4374 492.898 43.2717 502.35 33.5735C508.21 27.5465 504.495 24.3307 502.939 24.9974Z" fill="#163F59"/>
<path d="M505.35 19.4261C505.35 24.1863 509.262 28.0461 514.091 28.0494L516.28 23.9574C521.11 23.9574 525.008 16.7833 525.008 12.0225V8.78956C525.008 4.03066 521.094 0.172791 516.267 0.172791H514.078C509.25 0.172791 505.337 4.03066 505.337 8.78956L505.35 19.4261Z" fill="#E8502E"/>
<path d="M523.278 8.52725C523.878 8.4492 524.482 8.40329 525.088 8.38953C524.901 16.243 531.209 22.758 539.176 22.9416C539.529 22.9495 539.882 22.9456 540.235 22.9279C540.291 31.0292 533.673 37.6413 525.455 37.6964C517.237 37.7514 510.528 31.2279 510.473 23.1266C510.423 15.778 515.896 9.52597 523.278 8.50102V8.52725Z" fill="#E8502E"/>
<path d="M508.843 3.44507C508.856 4.25755 508.927 5.06873 509.055 5.87139C509.94 11.4061 513.346 15.6095 517.078 16.1276C517.191 18.6326 518.096 20.8032 518.322 22.8033C518.808 27.1444 523.906 27.835 523.906 27.835C524.571 31.6974 508.896 36.8301 509.215 36.2071C509.534 35.5841 512.821 31.0331 513.872 26.8559C514.476 24.4519 513.991 21.9081 512.541 19.8851C511.24 18.4319 509.391 17.5689 507.426 17.4981C507.146 17.5001 506.877 17.386 506.687 17.1833C506.508 16.6004 506.416 15.9951 506.414 15.3866V8.27806C506.417 6.38224 507.314 4.59592 508.843 3.44507Z" fill="#E9D6B8"/>
<path d="M526.146 49.7093L532.604 37.0858C534.985 33.4463 533.744 29.8836 529.639 29.0311L507.831 24.482C505.257 24.1673 501.126 27.8002 502.044 32.1283L506.967 46.2534L526.146 49.7093Z" fill="#E9D6B8"/>
<path d="M529.665 31.1052C529.046 41.9975 539.943 59.5917 539.943 59.5917C539.943 59.5917 544.1 59.6573 544.499 57.7687C544.998 55.3817 541.379 50.4044 536.769 36.0432C533.915 27.1575 529.758 29.2822 529.665 31.1052Z" fill="#163F59"/>
<path d="M508.949 54.9358C508.949 56.5752 510.699 59.2179 511.963 59.1917L524.19 59.5786C525.454 59.5786 528.487 57.5392 528.454 55.9063L528.341 50.3979C528.341 48.765 527.263 47.4535 525.999 47.4797L510.186 43.7681C508.922 43.7681 507.925 45.1386 507.958 46.7781L508.949 54.9358Z" fill="#5B5B5B"/>
<path d="M504.665 30.6987C504.862 29.9465 505.151 29.2199 505.523 28.5347C516.792 36.4038 524.762 33.0725 530.509 31.7348C530.57 32.0778 530.61 32.4233 530.629 32.7709C530.842 36.7055 530.556 40.6401 530.722 44.5222C530.882 47.6371 526.432 50.3585 524.296 50.4241C516.313 50.7651 514.53 50.2929 506.873 48.2535C504.818 47.7092 501.006 44.4107 501.804 41.545C502.776 37.9469 503.729 34.3316 504.665 30.6987Z" fill="#6A6A6A"/>
<path d="M524.536 27.6625C524.536 27.6625 532.864 27.4133 534.321 31.3413C535.778 35.2694 532.239 41.0008 532.239 41.0008C532.239 41.0008 530.124 48.2863 529.538 52.2406C528.953 56.1948 531.534 59.9458 530.722 59.1786C530.563 59.0212 528.68 59.1786 525.673 57.8146C522.666 56.4506 524.343 51.0405 524.635 49.2896C524.928 47.5387 526.398 39.0072 526.072 37.5908C525.746 36.1743 524.536 27.6625 524.536 27.6625Z" fill="#194866"/>
<path d="M500.394 30.1544C500.394 30.1544 499.729 26.8756 501.126 25.564C503.122 23.6492 508.018 23.905 509.594 24.364C510.504 24.6184 511.393 24.9378 512.255 25.3214C512.255 25.3214 506.74 27.5117 506.933 38.7646C507.097 41.7339 507.5 44.6849 508.137 47.5912C508.803 50.5815 509.029 56.4244 509.029 56.4244C509.029 56.4244 505.703 57.0801 505.59 57.572C505.477 58.0638 505.23 54.0964 502.989 50.3585C500.747 46.6207 500.394 30.1544 500.394 30.1544Z" fill="#194866"/>
<path d="M507.632 24.0757C504.565 26.5939 502.709 28.7448 503.175 41.8207C503.248 43.9389 503.175 47.8341 503.567 51.4605C503.381 51.0867 503.181 50.7129 502.962 50.3326C500.72 46.5685 500.367 30.1547 500.367 30.1547C500.367 30.1547 499.975 27.1972 501.352 25.8856C502.729 24.5741 505.516 23.9315 507.632 24.0757Z" fill="#0E2B3D"/>
<path d="M544.408 28.1629L543.125 28.1922L543.104 27.3002L534.541 27.4961L534.723 34.9797C534.685 35.9295 535.427 36.7342 536.39 36.7857L541.708 36.664C542.67 36.5718 543.377 35.7334 543.292 34.7837L543.278 34.2131L544.562 34.1838C545.245 34.1189 545.745 33.5201 545.68 32.8457L545.597 29.4351C545.622 28.7612 545.092 28.1932 544.408 28.1629ZM544.703 32.8812C544.713 32.9859 544.635 33.0789 544.529 33.0886L544.528 33.0886L543.245 33.1179L543.152 29.2875L544.435 29.2582C544.542 29.263 544.624 29.3517 544.619 29.4568L544.619 29.4574L544.703 32.8812Z" fill="#B0BFDE"/>
<path d="M544.35 45.6781C545.044 42.8021 546.26 39.8222 545.986 38.1229C545.589 35.7048 544.307 34.6321 544.699 32.9766C544.732 32.7941 544.754 32.6093 544.765 32.424C544.813 31.9309 544.959 31.3831 544.954 31.1798C544.949 30.9766 544.853 30.2834 544.998 30.5228C546.294 32.7301 547.526 35.3259 547.534 35.9423C547.565 37.2077 547.323 44.2193 546.689 46.8054C545.983 49.7276 543.415 49.5568 544.35 45.6781Z" fill="#E9D6B8"/>
<path d="M546.449 37.6205C546.449 37.6205 547.019 37.8501 547.221 37.419C547.511 36.5024 547.639 35.543 547.598 34.583C547.582 33.9273 547.053 31.0203 547.053 31.0203C546.712 31.6816 546.593 32.4335 546.713 33.1667C546.848 34.656 546.759 36.157 546.449 37.6205Z" fill="#E9D6B8"/>
<path d="M546.387 51.4371C545.389 51.0775 544.411 50.6623 543.46 50.1921C545.344 42.6703 547.284 36.374 547.284 36.374L546.387 51.4371Z" fill="#E9D6B8"/>
<path d="M546.912 33.9568L546.073 29.8098L544.415 29.4541L543.857 29.749L543.795 30.1965C543.795 30.1965 544.014 30.4671 543.974 30.468C543.735 30.4735 543.826 31.1865 544.032 31.1818C543.968 31.5028 543.929 31.8285 543.916 32.1555C544.057 32.4934 544.714 32.4194 545.017 33.1407C545.32 33.862 544.942 34.717 545.342 34.7604C545.742 34.8037 546.912 33.9568 546.912 33.9568Z" fill="#E9D6B8"/>
<path d="M546.716 49.5326C546.595 48.9252 543.047 48.7899 542.668 49.9008L542.276 50.7167C542.276 50.7167 539.206 57.8925 543.099 59.1091C543.092 59.1093 547.265 58.7186 546.716 49.5326Z" fill="#0E2B3D"/>
<path d="M483.736 46.441C481.878 40.3368 488.941 34.4164 488.941 34.4164C488.941 34.4164 490.866 34.9334 491.43 36.0953C492.154 37.5591 491.372 40.2626 489.192 46.3402C487.844 50.1304 484.046 47.4506 483.736 46.441Z" fill="#163F59"/>
<path d="M487.016 42.0334C487.016 42.0334 488.3 42.3565 490.454 37.1864C492.608 32.0162 492.698 25.5831 492.698 25.5831L487.958 35.5726C487.958 35.5726 485.795 40.0677 487.016 42.0334Z" fill="#E9D6B8"/>
<path d="M492.681 25.5736C492.62 24.9154 492.489 24.2654 492.289 23.6353C491.979 22.2122 491.565 20.8138 491.05 19.4509C490.719 18.5304 490.445 17.59 490.229 16.6354C489.698 18.0352 490.366 18.895 490.388 19.5728C490.409 20.2505 490.48 20.0163 489.644 19.1532C489.177 18.6627 489.25 17.0811 489.166 16.0185C489.159 15.5676 489.043 15.1259 488.827 14.7304C488.643 15.6462 488.55 16.5772 488.551 17.51C488.579 18.8355 488.76 20.1529 489.09 21.4362C489.569 22.5905 490.127 23.7111 490.76 24.7902C491.381 26.1508 491.419 27.7049 490.864 29.0991C490.43 30.2358 492.421 27.869 492.681 25.5736Z" fill="#E9D6B8"/>
<path d="M489.263 21.5539C488.77 20.6253 488.354 19.6582 488.018 18.6627C487.986 18.2901 488.115 16.4848 488.115 16.4848C488.403 16.9546 488.574 17.4862 488.613 18.0351C488.755 19.2207 488.972 20.3957 489.263 21.5539Z" fill="#E9D6B8"/>
<path d="M526.126 60.1557C526.126 60.3327 525.234 60.4311 524.163 60.3655L512.036 59.618C510.965 59.5524 510.107 59.3556 510.12 59.172L510.16 58.5163C510.16 58.3392 511.051 58.2474 512.156 58.3064L524.276 59.054C525.347 59.1196 526.212 59.3163 526.199 59.4999L526.126 60.1557Z" fill="#15100C"/>
<path d="M527.283 79.0745H561.569V79.7696H527.283V79.0745Z" fill="#CDD5D7"/>
<path d="M542.417 79.0352C542.387 79.5388 542.772 79.9736 543.282 80.0123H560.871C561.343 80.0123 561.995 79.6713 562.581 78.3007L571.275 62.6607C571.326 62.1669 570.963 61.7256 570.462 61.6751C570.394 61.6679 570.325 61.6685 570.257 61.677L552.223 62.2148C551.657 62.3807 551.221 62.8299 551.079 63.3951L542.417 79.0352Z" fill="#CDD5D7"/>
<path d="M544.546 79.7696H527.203C528.085 80.1585 529.045 80.3428 530.011 80.3073H558.935C559.898 80.3421 560.856 80.1578 561.736 79.7696H544.546Z" fill="#B7BEC0"/>
<path d="M560.999 90.0347C561.852 88.6551 562.191 87.051 562.747 85.5853C562.931 82.8942 562.63 81.165 561.774 80.6683C558.552 78.7962 549.661 85.1751 531.296 125.217C527.293 133.937 518.302 152.443 520.553 149.239C521.781 147.49 523.27 149.284 524.417 147.649C554.564 104.657 556.87 96.7152 560.999 90.0347Z" fill="#E2C59C"/>
<path d="M520.133 147.418L523.316 139.89C523.567 139.215 524.172 138.732 524.893 138.63L522.445 144.432C521.959 145.508 522.322 146.778 523.309 147.447C523.612 147.62 523.963 147.69 524.31 147.648L523.576 149.38C523.285 150.333 522.267 150.868 521.302 150.576C521.198 150.544 521.097 150.503 521 150.454C519.998 149.786 519.63 148.5 520.133 147.418Z" fill="#163F59"/>
<path d="M553.89 92.5725C554.551 91.1601 554.591 89.5248 554.905 88.0257C554.668 85.4067 553.995 83.932 553.181 83.377C549.482 80.8575 543.01 87.2847 534.624 112.656C530.375 125.441 527.4 136.415 520.323 143.89C519.435 144.77 518.836 145.895 518.603 147.119C517.908 150.649 519.001 154.798 519.134 154.648C524.019 148.848 541.662 119.014 553.89 92.5725Z" fill="#E9D6B8"/>
<path d="M516.404 152.462L519.163 144.772C519.378 144.081 519.959 143.564 520.676 143.426L518.541 149.351C518.115 150.451 518.55 151.699 519.574 152.308C519.888 152.462 520.241 152.515 520.586 152.459L519.948 154.226C519.699 155.19 518.706 155.77 517.73 155.52C517.629 155.494 517.532 155.461 517.437 155.419C516.413 154.809 515.977 153.562 516.404 152.462Z" fill="#194866"/>
<path d="M603.927 302.654L604.236 283.371L614.513 278.651L620.229 277.441L610.129 284.972L610.747 302.491L603.927 302.654Z" fill="#E9D6B8"/>
<path d="M604.261 280.34L605.784 280.068L607.287 281.411L615.505 277.422L622.807 275.742C622.858 276.042 622.809 276.35 622.666 276.62C621.778 277.75 616.648 280.34 616.648 280.34C616.648 280.34 616.552 278.666 615.829 278.62C615.107 278.574 608.799 281.76 607.345 282.647C604.841 284.183 603.753 285.443 603.71 285.039C603.681 284.44 604.261 280.34 604.261 280.34Z" fill="#181863"/>
<path d="M601.756 343.245L602.331 295.935L611.238 295.633L614.598 349.376C614.598 349.376 614.891 355.922 607.236 357.577C600.252 358.592 601.756 343.245 601.756 343.245Z" fill="#373737"/>
<path d="M493.282 329.256C498.412 334.441 506.836 334.544 512.096 329.487C517.357 324.43 517.462 316.126 512.332 310.941C507.201 305.756 498.777 305.652 493.517 310.709C493.454 310.77 493.391 310.832 493.328 310.894C488.18 315.955 488.159 324.17 493.282 329.256Z" fill="#080823"/>
<path d="M512.195 329.59C517.323 334.777 525.747 334.884 531.009 329.829C536.271 324.773 536.379 316.47 531.25 311.282C526.122 306.095 517.699 305.988 512.437 311.044C512.374 311.105 512.31 311.166 512.248 311.229C507.097 316.288 507.074 324.502 512.195 329.59Z" fill="#080823"/>
<path d="M496.754 307.629C503.241 313.911 513.785 313.721 520.297 307.189C526.81 300.658 526.85 290.27 520.357 283.975C513.864 277.68 503.334 277.876 496.814 284.408C490.293 290.784 490.25 301.164 496.718 307.592C496.73 307.604 496.743 307.617 496.754 307.629Z" fill="#080823"/>
<path d="M499.362 309.419C504.493 314.604 512.917 314.707 518.177 309.65C523.437 304.593 523.542 296.29 518.412 291.104C513.282 285.919 504.858 285.815 499.597 290.872C499.534 290.933 499.471 290.995 499.409 291.057C494.26 296.118 494.239 304.333 499.362 309.419Z" fill="#080823"/>
<path d="M485.12 309.996C489.062 313.822 495.405 313.773 499.287 309.886C499.288 309.886 499.288 309.885 499.289 309.884L497.659 304.828C501.539 300.94 501.486 294.687 497.542 290.863C497.541 290.862 497.54 290.861 497.54 290.861L494.879 288.238C490.932 284.41 484.586 284.46 480.702 288.349L478.953 290.106C475.068 293.994 475.116 300.25 479.059 304.081L485.12 309.996Z" fill="#080823"/>
<path d="M477.409 296.992C478.096 297.636 478.827 298.232 479.598 298.776C484.92 302.514 491.113 303.143 494.546 300.553C496.525 302.28 498.726 303.744 501.092 304.907C503.46 306.101 507.452 305.864 507.452 305.864C511.164 308.488 513.346 318.914 504.877 323.019C499.795 325.485 498.89 319.59 499.509 315.504C499.808 313.583 499.974 311.439 499.455 310.599C497.646 307.655 496.315 307.635 494.034 307.209C491.786 307.084 489.586 307.878 487.953 309.406C487.725 309.632 487.412 309.755 487.089 309.747C486.46 309.424 485.884 309.011 485.379 308.52L479.492 302.802C477.925 301.286 477.157 299.142 477.409 296.992Z" fill="#E9D6B8"/>
<path d="M510.359 312.698C514.827 318.866 523.523 320.297 529.781 315.892C536.039 311.487 537.49 302.915 533.021 296.746C528.553 290.577 519.857 289.147 513.599 293.552C513.521 293.607 513.443 293.663 513.365 293.72C507.221 298.144 505.876 306.638 510.359 312.698Z" fill="#080823"/>
<path d="M552.269 361.172L558.256 360.929L607.058 357.506C607.058 357.506 611.442 358.818 614.169 351.985C617.619 343.346 601.729 339.728 601.729 339.728C601.729 339.728 567.469 328.934 559.699 331.603C550.626 334.712 545.403 338.954 533.955 350.693C528.912 355.854 535.591 360.326 535.591 360.326L552.269 361.172Z" fill="#202020"/>
<path d="M496.836 348.199C496.836 348.199 496.938 350.424 486.106 351.156C475.275 351.888 459.191 350.319 459.191 350.319L484.002 346.267C484.002 346.267 493.565 345.214 496.836 348.199Z" fill="#E2C59C"/>
<path d="M467.761 350.553C462.63 351.055 460.689 353.821 458.742 354.813C457.406 355.523 456.116 356.315 454.88 357.184C455.792 354.906 457.444 354.67 458.201 353.893C458.958 353.115 458.803 353.474 456.938 353.524C455.891 353.548 454.25 355.544 453.047 356.675C452.565 357.19 451.958 357.575 451.284 357.797C452.057 356.509 452.958 355.3 453.971 354.187C455.403 352.66 457.018 351.312 458.78 350.173C459.822 349.643 463.248 349.185 465.729 349.268C468.528 349.36 471.458 350.185 467.761 350.553Z" fill="#E2C59C"/>
<path d="M492.417 343.978C492.417 343.978 502.356 345.197 501.305 350.988C500.713 354.267 498.364 355.29 495.364 354.876C489.796 354.089 483.496 352.909 483.496 352.909L481.221 343.676L492.417 343.978Z" fill="#D34682"/>
<path d="M492.71 348.115L497.213 316.055C497.213 316.055 497.619 309.176 500.114 309.497C503.713 310.009 509.268 320.449 509.427 322.613C509.687 327.013 503.241 349.617 502.409 354.089C501.837 357.185 499.083 353.434 495.856 352.87C489.869 351.827 492.71 348.115 492.71 348.115Z" fill="#D34682"/>
<path d="M497.32 312.022C497.32 312.022 505.562 301.858 512.434 307.956C519.306 314.055 543.335 333.066 550.586 335.262L552.249 361.946C532.411 363.257 516.133 353.244 514.783 351.25C510.432 344.784 494.566 320.147 497.32 312.022Z" fill="#DE5690"/>
<path d="M521.209 344.909C519.273 342.286 515.275 336.699 511.403 330.423C506.514 322.501 499.05 323.819 503.048 331.59C506.601 338.353 510.525 344.921 514.802 351.263C516.133 353.23 529.325 363.251 549.162 361.959L547.259 359.244C533.043 357.906 522.466 346.614 521.209 344.909Z" fill="#DE5690"/>
<path d="M509.052 355.676C509.052 355.676 511.935 358.922 498.489 357.168C488.933 355.908 489.137 356.579 465.697 349.82L497.076 351.283C497.076 351.283 505.751 351.575 509.052 355.676Z" fill="#E9D6B8"/>
<path d="M476.156 352.088C469.736 351.425 466.697 354.032 464.094 354.662C462.292 355.127 460.52 355.701 458.788 356.379C460.454 354.065 462.539 354.201 463.659 353.512C464.779 352.824 464.468 353.189 462.191 352.81C460.907 352.587 458.419 354.416 456.651 355.381C455.925 355.843 455.095 356.127 454.235 356.207C455.501 354.95 456.894 353.824 458.39 352.845C460.54 351.481 462.843 350.37 465.252 349.533C466.668 349.188 470.976 349.504 473.995 350.188C477.378 350.942 480.799 352.565 476.156 352.088Z" fill="#E9D6B8"/>
<path d="M502.023 350.227L497.559 313.95C497.559 313.95 500.433 310.376 502.961 311.622C505.669 312.934 511.07 316.619 511.07 316.619C511.07 316.619 515.587 329.21 516.818 340.227C518.814 358.542 517.856 358.949 511.07 360.555C503.979 362.221 491.113 360.555 491.113 360.555L488.279 350.155L502.023 350.227Z" fill="#DE5690"/>
<path d="M624.355 301.666L629.427 289.225L633.141 287.142L641.486 285.668L646.26 288.418L634.789 291.841L629.223 304.801L624.355 301.666Z" fill="#E9D6B8"/>
<path d="M630.822 286.632L633.752 285.823L634.26 286.634L642.148 284.901C642.148 284.901 648.537 285.477 649.175 287.193C649.377 287.744 648.181 288.114 646.515 288.599C645.844 288.808 645.158 288.96 644.462 289.056C644.462 289.056 644.561 287.975 642.4 286.777C641.71 286.391 636.032 287.754 634.149 287.97C630.815 288.351 628.968 289.908 628.902 289.673C628.744 289.061 630.822 286.632 630.822 286.632Z" fill="#181863"/>
<path d="M604.599 356.767C604.599 356.767 608.22 359.494 613.191 354.02C620.265 346.242 632.323 298.925 632.323 298.925L625.531 296.61L605.953 338.278C605.953 338.278 598.981 350.554 603.755 355.832L604.599 356.767Z" fill="#202020"/>
<path d="M479.997 358.929V358.89V357.486H421.15V358.89C421.146 358.903 421.146 358.916 421.15 358.929L421.303 359.191C422.055 360.405 423.412 360.627 424.962 360.627H476.185C477.742 360.627 479.099 360.405 479.857 359.191L479.997 358.929Z" fill="#D1DBEA"/>
<path d="M465.814 359.165C465.814 359.165 465.814 359.165 465.814 359.204L465.961 359.414C466.182 359.719 466.477 359.964 466.819 360.129H475.766C477.263 360.129 478.567 359.959 479.292 358.975L479.432 358.759H479.465V358.063H465.828L465.814 359.165Z" fill="#B6C2C9"/>
<path d="M428.468 357.808H457.871V358.798H428.468V357.808Z" fill="#B6C2C9"/>
<path d="M465.488 357.434L457.858 328.928C457.63 328.155 456.93 327.611 456.115 327.57H414.824C414.259 327.543 413.778 327.972 413.751 328.53C413.744 328.665 413.765 328.801 413.812 328.928L421.436 357.434H465.488Z" fill="#EBEBEB"/>
<path d="M442.152 342.502C442.521 343.526 441.978 344.651 440.94 345.015C440.688 345.103 440.422 345.14 440.156 345.125C438.58 345.043 437.227 343.993 436.777 342.502C436.407 341.478 436.95 340.353 437.989 339.989C438.24 339.901 438.506 339.864 438.772 339.879C440.349 339.959 441.703 341.01 442.152 342.502Z" fill="#B6C2C9"/>
<path d="M366.72 305.722L345.929 303.73C345.263 310.144 346.028 316.616 348.169 322.689L367.917 315.807C366.776 312.577 366.368 309.134 366.72 305.722Z" fill="#C3D80E"/>
<path d="M414.166 310.452L434.957 312.444C435.622 306.023 434.855 299.542 432.711 293.462L412.961 300.351C414.105 303.586 414.516 307.033 414.166 310.452Z" fill="#474EC9"/>
<path d="M367.953 315.819L348.217 322.681C350.36 328.767 353.822 334.309 358.364 338.921L373.364 324.446C370.945 321.996 369.099 319.053 367.953 315.819Z" fill="#9FC400"/>
<path d="M407.529 291.71C409.945 294.169 411.788 297.121 412.932 300.361L432.663 293.47C430.52 287.387 427.06 281.845 422.523 277.232L407.529 291.71Z" fill="#6E57DA"/>
<path d="M373.4 324.483L358.405 338.955C362.942 343.569 368.458 347.13 374.56 349.386L381.998 330.047C378.75 328.842 375.814 326.942 373.4 324.483Z" fill="#4DB544"/>
<path d="M407.486 291.691L422.488 277.221C417.944 272.614 412.254 268.878 406.152 266.623L398.882 286.146C402.129 287.347 405.067 289.24 407.486 291.691Z" fill="#CC5073"/>
<path d="M382.896 330.377C382.607 330.282 382.33 330.191 382.047 330.097L374.611 349.43C375.133 349.602 375.646 349.819 376.18 349.996C381.823 351.853 387.791 352.572 393.734 352.11L392.228 331.51C389.068 331.754 385.895 331.369 382.896 330.377Z" fill="#17D0B4"/>
<path d="M397.996 285.798C398.178 285.859 398.656 286.044 398.845 286.106L406.072 266.704C405.72 266.588 405.055 266.321 404.703 266.205C399.056 264.335 393.08 263.608 387.129 264.07L388.635 284.67C391.804 284.421 394.987 284.805 397.996 285.798Z" fill="url(#paint1_linear_28_16)"/>
<path d="M367.791 300.581C368.524 298.442 369.561 296.416 370.872 294.564L353.787 282.765C349.374 288.994 346.654 296.233 345.892 303.783L366.677 305.775C366.849 304.009 367.223 302.267 367.791 300.581Z" fill="#FFCF33"/>
<path d="M413.081 315.595C412.347 317.733 411.31 319.759 409.999 321.612L427.084 333.411C431.499 327.178 434.22 319.935 434.984 312.38L414.199 310.388C414.027 312.159 413.652 313.906 413.081 315.595Z" fill="#4777E6"/>
<path d="M392.272 331.55L393.778 352.155C400.29 351.644 406.62 349.734 412.324 346.558L402.155 328.564C399.116 330.257 395.743 331.276 392.272 331.55Z" fill="#4EB3D7"/>
<path d="M388.646 284.635L387.14 264.03C380.625 264.539 374.294 266.448 368.588 269.624L378.759 287.612C381.8 285.921 385.175 284.905 388.646 284.635Z" fill="#F58620"/>
<path d="M402.149 328.613L412.32 346.612C418.191 343.345 423.249 338.817 427.119 333.363L410.03 321.562C407.968 324.464 405.274 326.874 402.149 328.613Z" fill="#4E99FF"/>
<path d="M378.738 287.561L368.589 269.576C362.719 272.843 357.66 277.372 353.791 282.825L370.879 294.627C372.933 291.722 375.618 289.306 378.738 287.561Z" fill="#FFA813"/>
<path d="M364.5 380.5C340.378 366.224 210.597 324.806 459.986 386.043L460 386.044L464.434 387.136C466.919 387.748 469.441 388.369 472 389L464.434 387.136C462.938 386.768 461.456 386.404 459.986 386.043L364.5 380.5Z" fill="white"/>
<path d="M464.434 387.136C466.919 387.748 469.441 388.369 472 389L464.434 387.136Z" fill="white"/>
<path d="M364.5 380.5C340.378 366.224 210.597 324.806 459.986 386.043L460 386.044L464.434 387.136C466.919 387.748 469.441 388.369 472 389L464.434 387.136C462.938 386.768 461.456 386.404 459.986 386.043L364.5 380.5Z" stroke="white"/>
<path d="M464.434 387.136C466.919 387.748 469.441 388.369 472 389L464.434 387.136Z" stroke="white"/>
<defs>
<linearGradient id="paint0_linear_28_16" x1="356.43" y1="287.824" x2="570.582" y2="834.488" gradientUnits="userSpaceOnUse">
<stop stop-color="#F1F1F1"/>
<stop offset="1" stop-color="#7D7D7D"/>
</linearGradient>
<linearGradient id="paint1_linear_28_16" x1="189.54" y1="242.182" x2="206.686" y2="190.131" gradientUnits="userSpaceOnUse">
<stop stop-color="white"/>
<stop offset="1"/>
</linearGradient>
</defs>
</svg>
